<mxfile host="app.diagrams.net" agent="Mozilla/5.0 (X11; Linux x86_64) AppleWebKit/537.36 (KHTML, like Gecko) Chrome/135.0.0.0 Safari/537.36" version="26.0.11">
  <diagram name="第 1 页" id="3mNycaFyA4g0v7XZ9ip5">
    <mxGraphModel dx="1137" dy="1802" grid="1" gridSize="10" guides="1" tooltips="1" connect="1" arrows="1" fold="1" page="1" pageScale="1" pageWidth="827" pageHeight="1169" math="0" shadow="0">
      <root>
        <mxCell id="0" />
        <mxCell id="1" parent="0" />
        <mxCell id="LZ0KXw2VFaYuvreMgtLr-4" style="edgeStyle=orthogonalEdgeStyle;rounded=0;orthogonalLoop=1;jettySize=auto;html=1;exitX=1;exitY=0.5;exitDx=0;exitDy=0;entryX=0;entryY=0.5;entryDx=0;entryDy=0;" edge="1" parent="1" source="LZ0KXw2VFaYuvreMgtLr-1" target="LZ0KXw2VFaYuvreMgtLr-3">
          <mxGeometry relative="1" as="geometry" />
        </mxCell>
        <mxCell id="LZ0KXw2VFaYuvreMgtLr-1" value="robot_calibrate" style="rounded=0;whiteSpace=wrap;html=1;" vertex="1" parent="1">
          <mxGeometry x="65" y="260" width="120" height="60" as="geometry" />
        </mxCell>
        <mxCell id="LZ0KXw2VFaYuvreMgtLr-2" value="入口" style="text;html=1;align=center;verticalAlign=middle;resizable=0;points=[];autosize=1;strokeColor=none;fillColor=none;" vertex="1" parent="1">
          <mxGeometry x="100" y="220" width="50" height="30" as="geometry" />
        </mxCell>
        <mxCell id="LZ0KXw2VFaYuvreMgtLr-7" style="edgeStyle=orthogonalEdgeStyle;rounded=0;orthogonalLoop=1;jettySize=auto;html=1;exitX=1;exitY=0.5;exitDx=0;exitDy=0;entryX=0;entryY=0.5;entryDx=0;entryDy=0;" edge="1" parent="1" source="LZ0KXw2VFaYuvreMgtLr-3" target="LZ0KXw2VFaYuvreMgtLr-5">
          <mxGeometry relative="1" as="geometry" />
        </mxCell>
        <mxCell id="LZ0KXw2VFaYuvreMgtLr-8" style="edgeStyle=orthogonalEdgeStyle;rounded=0;orthogonalLoop=1;jettySize=auto;html=1;exitX=1;exitY=0.5;exitDx=0;exitDy=0;entryX=0;entryY=0.5;entryDx=0;entryDy=0;" edge="1" parent="1" source="LZ0KXw2VFaYuvreMgtLr-3" target="LZ0KXw2VFaYuvreMgtLr-6">
          <mxGeometry relative="1" as="geometry" />
        </mxCell>
        <mxCell id="LZ0KXw2VFaYuvreMgtLr-12" style="edgeStyle=orthogonalEdgeStyle;rounded=0;orthogonalLoop=1;jettySize=auto;html=1;exitX=1;exitY=0.5;exitDx=0;exitDy=0;entryX=0;entryY=0.5;entryDx=0;entryDy=0;" edge="1" parent="1" source="LZ0KXw2VFaYuvreMgtLr-3" target="LZ0KXw2VFaYuvreMgtLr-11">
          <mxGeometry relative="1" as="geometry" />
        </mxCell>
        <mxCell id="LZ0KXw2VFaYuvreMgtLr-3" value="puduRobotTechbox" style="rounded=0;whiteSpace=wrap;html=1;" vertex="1" parent="1">
          <mxGeometry x="320" y="260" width="120" height="60" as="geometry" />
        </mxCell>
        <mxCell id="LZ0KXw2VFaYuvreMgtLr-5" value="camera" style="whiteSpace=wrap;html=1;" vertex="1" parent="1">
          <mxGeometry x="530" y="-50" width="120" height="60" as="geometry" />
        </mxCell>
        <mxCell id="LZ0KXw2VFaYuvreMgtLr-6" value="Robotic arm" style="whiteSpace=wrap;html=1;" vertex="1" parent="1">
          <mxGeometry x="530" y="650" width="120" height="60" as="geometry" />
        </mxCell>
        <mxCell id="LZ0KXw2VFaYuvreMgtLr-10" value="get_img" style="whiteSpace=wrap;html=1;" vertex="1" parent="1">
          <mxGeometry x="720" y="-240" width="120" height="60" as="geometry" />
        </mxCell>
        <mxCell id="LZ0KXw2VFaYuvreMgtLr-11" value="calib_tools" style="whiteSpace=wrap;html=1;" vertex="1" parent="1">
          <mxGeometry x="540" y="260" width="120" height="60" as="geometry" />
        </mxCell>
        <mxCell id="LZ0KXw2VFaYuvreMgtLr-13" value="save_img" style="whiteSpace=wrap;html=1;" vertex="1" parent="1">
          <mxGeometry x="720" y="-150" width="120" height="60" as="geometry" />
        </mxCell>
        <mxCell id="LZ0KXw2VFaYuvreMgtLr-14" value="get_device" style="whiteSpace=wrap;html=1;" vertex="1" parent="1">
          <mxGeometry x="720" y="-320" width="120" height="60" as="geometry" />
        </mxCell>
      </root>
    </mxGraphModel>
  </diagram>
</mxfile>
